<svg xmlns="http://www.w3.org/2000/svg" viewBox="0 0 64 92" height="92" width="64">
    <path style="fill:#ffffff" d="m 32.028994,0 c -0.0151,0.006 -19.654073,9.03129 -24.6448127,27.583984 -0.4813515,1.781437 3.5122637,0.998558 3.3340217,2.957032 -0.218521,2.377931 -4.7983765,3.351684 -4.2012196,10.179687 0.6078649,6.953803 6.4798536,13.979963 7.3614126,18.226563 v 2.970703 c -0.05337,0.917374 -0.49051,3.406922 -1.93557,4.623047 -0.792516,0.664895 -1.860761,0.904547 -3.269568,0.728515 -1.9556133,-0.244432 -2.7337902,-1.554134 -3.0449568,-2.611328 -0.5105538,-1.742207 -0.03464,-3.772976 1.1113407,-4.726562 1.1520192,-0.958617 1.307341,-2.668565 0.347661,-3.820313 -0.959681,-1.150742 -2.6702905,-1.306331 -3.8223097,-0.345703 -2.79243791,2.324619 -3.96250928,6.608593 -2.84573552,10.419922 1.05433902,3.587015 3.88834442,6.003139 7.58407072,6.464844 0.526666,0.06538 1.0276077,0.09766 1.5039231,0.09766 2.8599115,0 4.7976055,-1.093004 5.9707725,-2.089844 3.530576,-3.004603 3.808028,-8.01293 3.828169,-8.574219 0.001,-0.03319 0.002,-0.06642 0.002,-0.09961 v -2.279297 h 0.01172 v -0.152344 c 0,-1.326773 1.075072,-2.402343 2.404324,-2.402343 1.283022,0 2.321254,1.00394 2.392607,2.267578 v 21.751953 c -0.02216,0.312833 -0.272414,3.211065 -1.921898,4.613285 -0.791509,0.67394 -1.867444,0.91632 -3.281288,0.73828 -1.956619,-0.24444 -2.73675,-1.5542 -3.046909,-2.60938 -0.511564,-1.74321 -0.03464,-3.775932 1.111341,-4.728513 1.152019,-0.959622 1.309293,-2.667559 0.349613,-3.820313 -0.958673,-1.14873 -2.672244,-1.306331 -3.824263,-0.345703 -2.794452,2.323613 -3.9625091,6.608593 -2.845735,10.419919 1.052325,3.58702 3.888343,6.00409 7.584071,6.4668 C 18.768442,91.9697 19.269384,92 19.7457,92 c 2.859907,0 4.798672,-1.09105 5.968818,-2.08789 3.531583,-3.0046 3.809035,-8.014881 3.828169,-8.576169 0.002,-0.03521 0.002,-0.06547 0.002,-0.09766 V 57 l 0.01367,-0.0059 v -0.107422 c 0,-1.352927 1.097717,-2.449219 2.453153,-2.449219 1.32667,0 2.399291,1.055173 2.441434,2.371094 V 81.23824 c 0,0.0332 -6.1e-5,0.06346 0.002,0.09766 0.02014,0.560282 0.298538,5.57157 3.830121,8.57617 C 39.457084,90.90895 41.395788,92 44.255696,92 c 0.477323,0 0.976311,-0.0303 1.50197,-0.0957 3.69472,-0.46271 6.531747,-2.88079 7.584072,-6.4668 1.11778,-3.811329 -0.05229,-8.095303 -2.845736,-10.419922 -1.154033,-0.960628 -2.86559,-0.802021 -3.824263,0.345703 -0.95968,1.15376 -0.804359,2.860691 0.34766,3.820313 1.145977,0.952581 1.62391,2.985306 1.111341,4.728516 -0.309152,1.05518 -1.089343,2.36494 -3.044956,2.60937 -1.407801,0.17704 -2.476106,-0.0636 -3.267616,-0.72851 -1.451101,-1.22015 -1.886165,-3.72289 -1.937522,-4.619142 V 59.494141 c 0.03183,-1.299046 1.08931,-2.34375 2.398465,-2.34375 1.329253,0 2.406278,1.074564 2.406278,2.402343 v 0.152344 h 0.0078 v 2.279297 c 0,0.0342 -6e-5,0.06742 0.002,0.09961 0.01913,0.560283 0.298539,5.569616 3.830122,8.574219 1.17216,0.99684 3.10891,2.089844 5.968819,2.089844 0.476315,0 0.978264,-0.03133 1.503923,-0.0957 3.694719,-0.461705 6.529792,-2.880788 7.582118,-6.466797 1.11778,-3.811329 -0.05229,-8.094297 -2.845736,-10.419922 -1.154033,-0.959622 -2.864643,-0.803086 -3.82231,0.347656 -0.960687,1.151748 -0.804358,2.859743 0.347661,3.81836 1.145977,0.953586 1.623909,2.986308 1.111341,4.728515 -0.309153,1.057194 -1.091297,2.365949 -3.04691,2.609375 -1.405786,0.177037 -2.476106,-0.06267 -3.267615,-0.726562 C 50.6055,65.321818 50.171383,62.818071 50.121033,61.923832 V 59.666016 C 50.690906,53.854126 56.898907,48.088458 57.542958,40.720703 58.137093,33.8927 53.555345,32.918947 53.337831,30.541016 53.158583,28.582542 57.15119,29.365421 56.671854,27.583984 51.680106,9.03129 32.043092,0.006035 32.028994,0 Z"></path>
</svg>
